<svg width="1440" height="318" viewBox="0 0 1440 318" fill="none" xmlns="http://www.w3.org/2000/svg">
<g filter="url(#filter0_d)">
<path d="M0.5 238.5L453 308.5M0.5 238.5V86M0.5 238.5L468.5 191.472M453 308.5L922 221M453 308.5L0.5 86M922 221L1099 308.5M922 221L1212.5 2M922 221L913 220.443M1099 308.5L1212.5 2M1099 308.5L1318 200.938M1212.5 2L1438 142L1318 200.938M1212.5 2L1318 200.938M1212.5 2L845 97.75M477.5 193.5L468.5 191.472M477.5 193.5L913 220.443M477.5 193.5L845 97.75M0.5 86L468.5 191.472M468.5 191.472L592.5 27L845 97.75M913 220.443L845 97.75" stroke="url(#paint0_linear)" stroke-width="2"/>
</g>
<defs>
<filter id="filter0_d" x="-4.5" y="0.924149" width="1448.56" height="316.691" filterUnits="userSpaceOnUse" color-interpolation-filters="sRGB">
<feFlood flood-opacity="0" result="BackgroundImageFix"/>
<feColorMatrix in="SourceAlpha" type="matrix" values="0 0 0 0 0 0 0 0 0 0 0 0 0 0 0 0 0 0 127 0"/>
<feOffset dy="4"/>
<feGaussianBlur stdDeviation="2"/>
<feColorMatrix type="matrix" values="0 0 0 0 0 0 0 0 0 0 0 0 0 0 0 0 0 0 0.25 0"/>
<feBlend mode="normal" in2="BackgroundImageFix" result="effect1_dropShadow"/>
<feBlend mode="normal" in="SourceGraphic" in2="effect1_dropShadow" result="shape"/>
</filter>
<linearGradient id="paint0_linear" x1="719.25" y1="2" x2="719.25" y2="308.5" gradientUnits="userSpaceOnUse">
<stop stop-color="#FDDB92"/>
<stop offset="1" stop-color="#D1FDFF"/>
</linearGradient>
</defs>
</svg>
