<svg width="711" height="156" viewBox="0 0 711 156" fill="none" xmlns="http://www.w3.org/2000/svg">
<path d="M139.313 90.5716C133.292 90.5716 127.919 89.1997 123.193 86.4559C118.544 83.6358 114.847 79.8249 112.104 75.0232C109.436 70.2214 108.102 64.81 108.102 58.7888C108.102 52.6913 109.398 47.2417 111.989 42.44C114.581 37.6383 118.125 33.8655 122.622 31.1217C127.118 28.3016 132.301 26.8916 138.17 26.8916C147.697 26.8916 155.433 30.55 161.378 37.8669C162.217 38.7816 162.522 39.7724 162.293 40.8394C162.064 41.8303 161.417 42.7068 160.349 43.469C159.511 44.0787 158.558 44.3074 157.491 44.1549C156.5 43.9263 155.624 43.3546 154.862 42.44C150.441 37.4096 144.877 34.8944 138.17 34.8944C133.902 34.8944 130.129 35.9234 126.852 37.9813C123.651 40.0391 121.135 42.8592 119.306 46.4415C117.553 50.0237 116.677 54.1395 116.677 58.7888C116.677 63.3618 117.629 67.4395 119.535 71.0217C121.44 74.604 124.108 77.424 127.538 79.4819C130.967 81.5398 134.893 82.5688 139.313 82.5688C145.411 82.5688 150.327 80.9301 154.061 77.6527C154.976 76.8905 155.929 76.4713 156.92 76.3951C157.91 76.3189 158.825 76.6238 159.663 77.3097C160.578 78.1481 161.074 79.1008 161.15 80.1679C161.302 81.2349 160.959 82.1496 160.121 82.9117C154.557 88.0183 147.621 90.5716 139.313 90.5716ZM185.81 90C184.438 90 183.333 89.6189 182.495 88.8567C181.733 88.0183 181.352 86.9132 181.352 85.5413V31.9219C181.352 30.55 181.733 29.483 182.495 28.7208C183.333 27.8824 184.438 27.4632 185.81 27.4632C187.106 27.4632 188.135 27.8824 188.897 28.7208C189.736 29.483 190.155 30.55 190.155 31.9219V85.5413C190.155 86.9132 189.736 88.0183 188.897 88.8567C188.135 89.6189 187.106 90 185.81 90ZM185.696 15.5732C184.019 15.5732 182.571 14.9635 181.352 13.744C180.132 12.5245 179.522 11.0382 179.522 9.28522C179.522 7.37977 180.132 5.89352 181.352 4.82647C182.647 3.6832 184.134 3.11156 185.81 3.11156C187.411 3.11156 188.821 3.6832 190.04 4.82647C191.336 5.89352 191.984 7.37977 191.984 9.28522C191.984 11.0382 191.374 12.5245 190.155 13.744C188.935 14.9635 187.449 15.5732 185.696 15.5732ZM217.029 90C215.657 90 214.552 89.6189 213.713 88.8567C212.951 88.0183 212.57 86.9513 212.57 85.6556V31.9219C212.57 30.55 212.951 29.483 213.713 28.7208C214.552 27.8824 215.657 27.4632 217.029 27.4632C218.324 27.4632 219.353 27.8824 220.116 28.7208C220.954 29.483 221.373 30.55 221.373 31.9219V35.8091C223.812 32.989 226.823 30.7787 230.405 29.1781C234.063 27.5775 237.989 26.7772 242.181 26.7772C247.592 26.7772 252.432 27.9205 256.7 30.207C260.968 32.4174 264.322 35.6947 266.761 40.0392C269.276 44.3836 270.534 49.6807 270.534 55.9306V85.6556C270.534 86.8751 270.115 87.904 269.276 88.7424C268.438 89.5808 267.409 90 266.189 90C264.894 90 263.827 89.5808 262.988 88.7424C262.15 87.904 261.731 86.8751 261.731 85.6556V55.9306C261.731 48.8423 259.749 43.6214 255.786 40.2678C251.898 36.838 247.059 35.1231 241.266 35.1231C237.531 35.1231 234.14 35.8472 231.091 37.2953C228.119 38.7434 225.756 40.7251 224.003 43.2403C222.25 45.7555 221.373 48.6137 221.373 51.8148V85.6556C221.373 86.9513 220.954 88.0183 220.116 88.8567C219.353 89.6189 218.324 90 217.029 90ZM318.409 90.5716C312.388 90.5716 306.976 89.1997 302.175 86.4559C297.373 83.6358 293.562 79.8249 290.742 75.0232C287.998 70.2214 286.626 64.7719 286.626 58.6744C286.626 52.6532 287.96 47.2417 290.628 42.44C293.371 37.6383 297.068 33.8655 301.717 31.1217C306.367 28.3016 311.626 26.8916 317.494 26.8916C322.601 26.8916 327.212 27.9967 331.328 30.207C335.444 32.3411 338.759 35.1993 341.274 38.7816V5.16945C341.274 3.79753 341.694 2.73048 342.532 1.9683C343.37 1.1299 344.437 0.710704 345.733 0.710704C347.029 0.710704 348.096 1.1299 348.934 1.9683C349.773 2.73048 350.192 3.79753 350.192 5.16945V59.1317C350.039 65.0767 348.553 70.4501 345.733 75.2518C342.989 79.9773 339.217 83.712 334.415 86.4559C329.689 89.1997 324.354 90.5716 318.409 90.5716ZM318.409 82.5688C322.83 82.5688 326.755 81.5398 330.185 79.4819C333.691 77.3478 336.435 74.4897 338.416 70.9074C340.474 67.3252 341.503 63.2475 341.503 58.6744C341.503 54.1776 340.474 50.138 338.416 46.5558C336.435 42.8973 333.691 40.0391 330.185 37.9813C326.755 35.9234 322.83 34.8944 318.409 34.8944C314.065 34.8944 310.139 35.9234 306.633 37.9813C303.127 40.0391 300.345 42.8973 298.288 46.5558C296.23 50.138 295.201 54.1776 295.201 58.6744C295.201 63.2475 296.23 67.3252 298.288 70.9074C300.345 74.4897 303.127 77.3478 306.633 79.4819C310.139 81.5398 314.065 82.5688 318.409 82.5688ZM381.521 117.21C380.911 117.21 380.225 117.057 379.463 116.752C376.872 115.609 376.148 113.78 377.291 111.265L388.724 86.2272L388.609 86.1129L363.114 33.2939C362.581 32.1506 362.505 31.0835 362.886 30.0927C363.267 29.1019 364.029 28.3397 365.172 27.8062C367.688 26.6629 369.517 27.3108 370.66 29.7497L392.954 76.7381L414.219 29.8641C415.362 27.4251 417.191 26.7391 419.706 27.8062C422.298 28.8732 423.022 30.6643 421.878 33.1795L384.837 114.58C384.074 116.333 382.969 117.21 381.521 117.21ZM435.466 91.8292C433.637 91.8292 432.075 91.1814 430.779 89.8857C429.483 88.59 428.835 87.0275 428.835 85.1983C428.835 83.2928 429.483 81.6922 430.779 80.3965C432.151 79.1008 433.713 78.453 435.466 78.453C437.296 78.453 438.858 79.1389 440.154 80.5109C441.449 81.8066 442.097 83.369 442.097 85.1983C442.097 86.9513 441.449 88.5138 440.154 89.8857C438.934 91.1814 437.372 91.8292 435.466 91.8292ZM471.573 90C467 90 463.227 88.1708 460.255 84.5123C457.282 80.7776 455.796 76.014 455.796 70.2214V5.05512C455.796 3.75942 456.177 2.73048 456.939 1.9683C457.778 1.1299 458.845 0.710704 460.14 0.710704C461.436 0.710704 462.465 1.1299 463.227 1.9683C464.066 2.73048 464.485 3.75942 464.485 5.05512V70.2214C464.485 73.4988 465.133 76.1664 466.428 78.2243C467.8 80.2822 469.515 81.3112 471.573 81.3112H474.431C475.575 81.3112 476.489 81.7304 477.175 82.5688C477.861 83.3309 478.204 84.3599 478.204 85.6556C478.204 86.9513 477.709 88.0183 476.718 88.8567C475.803 89.6189 474.584 90 473.059 90H471.573ZM515.241 90.5716C509.067 90.5716 503.579 89.2378 498.778 86.5702C494.052 83.8263 490.317 80.0536 487.574 75.2518C484.906 70.4501 483.572 64.9624 483.572 58.7888C483.572 52.5389 484.83 47.0512 487.345 42.3257C489.936 37.524 493.48 33.7512 497.977 31.0073C502.474 28.2635 507.657 26.8916 513.526 26.8916C519.318 26.8916 524.349 28.2254 528.617 30.893C532.961 33.4844 536.315 37.1048 538.678 41.7541C541.04 46.4033 542.222 51.7005 542.222 57.6455C542.222 58.865 541.841 59.8558 541.079 60.618C540.316 61.304 539.325 61.6469 538.106 61.6469H491.918C492.375 65.7627 493.633 69.4212 495.691 72.6223C497.749 75.7472 500.454 78.2243 503.808 80.0536C507.162 81.8066 510.972 82.6831 515.241 82.6831C517.984 82.6831 520.728 82.2258 523.472 81.3112C526.292 80.3203 528.541 79.1008 530.217 77.6527C531.056 76.9667 532.009 76.6238 533.076 76.6238C534.143 76.5475 535.057 76.8143 535.819 77.424C536.81 78.3387 537.306 79.3295 537.306 80.3965C537.382 81.4636 536.963 82.3782 536.048 83.1404C533.533 85.2745 530.332 87.0656 526.445 88.5138C522.558 89.8857 518.823 90.5716 515.241 90.5716ZM513.526 34.7801C507.657 34.7801 502.817 36.6093 499.006 40.2678C495.195 43.85 492.909 48.5374 492.147 54.33H533.99C533.38 48.5374 531.246 43.85 527.588 40.2678C524.006 36.6093 519.318 34.7801 513.526 34.7801Z" fill="white"/>
<path d="M455.352 107.366C456.19 107.366 456.914 107.338 457.524 107.28V107.852C457.124 107.909 456.771 108.09 456.466 108.395C456.162 108.681 455.895 109.167 455.666 109.853L451.522 122.143H451.036L446.52 110.653L442.433 122.143H441.947L437.259 109.481C436.993 108.814 436.716 108.386 436.431 108.195C436.164 107.985 435.888 107.881 435.602 107.881V107.28C436.345 107.395 437.183 107.452 438.117 107.452C439.07 107.452 440.308 107.395 441.833 107.28V107.881C441.128 107.881 440.613 107.938 440.289 108.052C439.984 108.166 439.832 108.462 439.832 108.938C439.832 109.281 439.927 109.729 440.118 110.281L442.976 118.513L447.092 107.166H447.749L452.122 118.713L454.809 110.539C454.98 110.024 455.066 109.596 455.066 109.253C455.066 108.795 454.904 108.462 454.58 108.252C454.256 108.043 453.713 107.909 452.951 107.852V107.28C453.961 107.338 454.761 107.366 455.352 107.366ZM470.578 118.57C470.235 119.618 469.588 120.523 468.635 121.285C467.701 122.029 466.567 122.4 465.234 122.4C463.881 122.4 462.709 122.095 461.718 121.486C460.727 120.857 459.965 119.99 459.432 118.885C458.917 117.76 458.66 116.465 458.66 114.997C458.66 113.34 458.927 111.901 459.46 110.682C459.994 109.462 460.746 108.528 461.718 107.881C462.69 107.214 463.824 106.88 465.119 106.88C466.834 106.88 468.149 107.404 469.064 108.452C469.997 109.481 470.464 111.053 470.464 113.168H461.518C461.461 113.702 461.432 114.312 461.432 114.997C461.432 116.255 461.632 117.351 462.032 118.284C462.452 119.218 462.995 119.942 463.662 120.457C464.348 120.952 465.062 121.2 465.805 121.2C466.72 121.2 467.53 120.981 468.235 120.542C468.94 120.104 469.53 119.37 470.007 118.342L470.578 118.57ZM465.005 107.423C464.109 107.423 463.338 107.862 462.69 108.738C462.042 109.615 461.642 110.91 461.489 112.625H467.72C467.758 111.139 467.539 109.9 467.063 108.91C466.606 107.919 465.92 107.423 465.005 107.423ZM481.121 106.88C482.741 106.88 484.046 107.547 485.037 108.881C486.047 110.215 486.552 112.139 486.552 114.654C486.552 116.312 486.266 117.722 485.694 118.885C485.122 120.047 484.351 120.923 483.379 121.514C482.426 122.105 481.359 122.4 480.178 122.4C479.473 122.4 478.787 122.257 478.12 121.971C477.472 121.686 476.9 121.276 476.405 120.742L474.376 122.457L473.89 122.257C474.023 121.781 474.09 121.228 474.09 120.599V103.05C474.09 102.174 473.928 101.535 473.604 101.135C473.28 100.735 472.718 100.535 471.918 100.535V99.9349C472.527 99.9921 473.118 100.021 473.69 100.021C474.89 100.021 475.881 99.8873 476.662 99.6205V109.939C477.081 108.967 477.682 108.214 478.463 107.681C479.263 107.147 480.149 106.88 481.121 106.88ZM479.949 121.743C481.226 121.743 482.179 121.171 482.807 120.028C483.455 118.866 483.779 117.074 483.779 114.654C483.779 112.33 483.493 110.596 482.922 109.453C482.35 108.309 481.474 107.738 480.292 107.738C479.492 107.738 478.758 108.052 478.091 108.681C477.424 109.291 476.948 110.158 476.662 111.282V120.342C477.101 120.8 477.605 121.152 478.177 121.4C478.749 121.628 479.339 121.743 479.949 121.743ZM515.977 118.885C515.977 119.761 516.139 120.399 516.463 120.8C516.787 121.2 517.349 121.4 518.149 121.4V122C517.559 121.943 516.968 121.914 516.377 121.914C515.177 121.914 514.186 122.048 513.405 122.314V119.771C513.062 120.628 512.547 121.285 511.861 121.743C511.175 122.181 510.337 122.4 509.346 122.4C507.517 122.4 506.078 121.743 505.03 120.428C504.001 119.113 503.496 117.189 503.515 114.654C503.515 112.997 503.801 111.587 504.373 110.424C504.964 109.243 505.745 108.357 506.717 107.766C507.707 107.176 508.794 106.88 509.975 106.88C510.699 106.88 511.356 107.023 511.947 107.309C512.557 107.576 513.043 107.995 513.405 108.567V103.022C513.405 102.145 513.243 101.507 512.919 101.107C512.595 100.707 512.033 100.507 511.233 100.507V99.9063C511.842 99.9635 512.433 99.9921 513.005 99.9921C514.205 99.9921 515.196 99.8587 515.977 99.5919V118.885ZM510.175 121.543C510.918 121.543 511.585 121.257 512.176 120.685C512.766 120.114 513.176 119.304 513.405 118.256V109.738C512.89 108.271 511.823 107.538 510.204 107.538C509.022 107.538 508.069 108.147 507.345 109.367C506.621 110.567 506.269 112.33 506.288 114.654C506.269 116.941 506.593 118.665 507.26 119.828C507.927 120.971 508.898 121.543 510.175 121.543ZM531.984 118.57C531.641 119.618 530.994 120.523 530.041 121.285C529.107 122.029 527.973 122.4 526.64 122.4C525.287 122.4 524.115 122.095 523.124 121.486C522.133 120.857 521.371 119.99 520.838 118.885C520.323 117.76 520.066 116.465 520.066 114.997C520.066 113.34 520.333 111.901 520.866 110.682C521.4 109.462 522.152 108.528 523.124 107.881C524.096 107.214 525.23 106.88 526.525 106.88C528.24 106.88 529.555 107.404 530.47 108.452C531.403 109.481 531.87 111.053 531.87 113.168H522.924C522.867 113.702 522.838 114.312 522.838 114.997C522.838 116.255 523.038 117.351 523.439 118.284C523.858 119.218 524.401 119.942 525.068 120.457C525.754 120.952 526.468 121.2 527.211 121.2C528.126 121.2 528.936 120.981 529.641 120.542C530.346 120.104 530.936 119.37 531.413 118.342L531.984 118.57ZM526.411 107.423C525.515 107.423 524.744 107.862 524.096 108.738C523.448 109.615 523.048 110.91 522.895 112.625H529.126C529.164 111.139 528.945 109.9 528.469 108.91C528.012 107.919 527.326 107.423 526.411 107.423ZM544.816 107.366C545.655 107.366 546.379 107.338 546.988 107.28V107.852C546.607 107.89 546.264 108.062 545.96 108.367C545.674 108.671 545.397 109.167 545.131 109.853L540.443 122.143H539.957L534.698 109.481C534.413 108.833 534.136 108.405 533.869 108.195C533.603 107.985 533.326 107.881 533.041 107.881V107.28C534.031 107.357 534.87 107.395 535.556 107.395C537.023 107.395 538.262 107.357 539.271 107.28V107.881C538.566 107.881 538.052 107.938 537.728 108.052C537.404 108.147 537.242 108.414 537.242 108.852C537.242 109.119 537.347 109.538 537.557 110.11L541.072 118.799L544.216 110.539C544.426 109.967 544.53 109.519 544.53 109.195C544.53 108.757 544.359 108.443 544.016 108.252C543.692 108.043 543.159 107.909 542.415 107.852V107.28C543.406 107.338 544.207 107.366 544.816 107.366ZM560.064 118.57C559.721 119.618 559.073 120.523 558.12 121.285C557.187 122.029 556.053 122.4 554.719 122.4C553.366 122.4 552.194 122.095 551.203 121.486C550.213 120.857 549.45 119.99 548.917 118.885C548.402 117.76 548.145 116.465 548.145 114.997C548.145 113.34 548.412 111.901 548.945 110.682C549.479 109.462 550.232 108.528 551.203 107.881C552.175 107.214 553.309 106.88 554.605 106.88C556.32 106.88 557.634 107.404 558.549 108.452C559.483 109.481 559.949 111.053 559.949 113.168H551.003C550.946 113.702 550.918 114.312 550.918 114.997C550.918 116.255 551.118 117.351 551.518 118.284C551.937 119.218 552.48 119.942 553.147 120.457C553.833 120.952 554.547 121.2 555.291 121.2C556.205 121.2 557.015 120.981 557.72 120.542C558.425 120.104 559.016 119.37 559.492 118.342L560.064 118.57ZM554.49 107.423C553.595 107.423 552.823 107.862 552.175 108.738C551.527 109.615 551.127 110.91 550.975 112.625H557.206C557.244 111.139 557.025 109.9 556.548 108.91C556.091 107.919 555.405 107.423 554.49 107.423ZM566.662 119.342C566.662 120.123 566.824 120.666 567.148 120.971C567.472 121.257 568.034 121.4 568.834 121.4V122C567.081 121.924 565.928 121.886 565.376 121.886C564.823 121.886 563.671 121.924 561.918 122V121.4C562.718 121.4 563.28 121.257 563.604 120.971C563.928 120.666 564.09 120.123 564.09 119.342V103.022C564.09 102.145 563.928 101.507 563.604 101.107C563.28 100.707 562.718 100.507 561.918 100.507V99.9063C562.508 99.9635 563.099 99.9921 563.69 99.9921C564.89 99.9921 565.881 99.8587 566.662 99.5919V119.342ZM577.019 106.88C578.963 106.88 580.525 107.528 581.707 108.824C582.907 110.1 583.507 112.044 583.507 114.654C583.507 117.265 582.907 119.209 581.707 120.485C580.525 121.762 578.963 122.4 577.019 122.4C575.076 122.4 573.504 121.762 572.303 120.485C571.122 119.209 570.531 117.265 570.531 114.654C570.531 112.044 571.122 110.1 572.303 108.824C573.504 107.528 575.076 106.88 577.019 106.88ZM577.019 107.452C575.876 107.452 574.971 108.043 574.304 109.224C573.637 110.386 573.304 112.196 573.304 114.654C573.304 117.113 573.637 118.923 574.304 120.085C574.971 121.247 575.876 121.829 577.019 121.829C578.162 121.829 579.068 121.247 579.734 120.085C580.401 118.923 580.735 117.113 580.735 114.654C580.735 112.196 580.401 110.386 579.734 109.224C579.068 108.043 578.162 107.452 577.019 107.452ZM594.793 106.88C595.803 106.88 596.708 107.157 597.508 107.709C598.327 108.262 598.966 109.072 599.423 110.139C599.88 111.206 600.109 112.482 600.109 113.969C600.109 115.436 599.871 116.808 599.394 118.084C598.937 119.361 598.213 120.399 597.222 121.2C596.25 122 595.031 122.4 593.564 122.4C592.84 122.4 592.182 122.257 591.592 121.971C591.001 121.686 590.544 121.314 590.22 120.857V124.515C590.22 125.296 590.448 125.83 590.906 126.116C591.363 126.421 592.049 126.573 592.964 126.573V127.173L592.306 127.145C590.534 127.088 589.381 127.059 588.848 127.059C588.39 127.059 587.362 127.097 585.761 127.173V126.573C586.466 126.573 586.952 126.44 587.219 126.173C587.504 125.925 587.647 125.468 587.647 124.801V110.396C587.647 109.519 587.485 108.881 587.161 108.481C586.838 108.081 586.275 107.881 585.475 107.881V107.28C586.066 107.338 586.656 107.366 587.247 107.366C588.448 107.366 589.438 107.233 590.22 106.966V109.996C590.639 109.005 591.249 108.243 592.049 107.709C592.849 107.157 593.764 106.88 594.793 106.88ZM593.249 121.743C595.974 121.743 597.337 119.285 597.337 114.369C597.337 109.948 596.231 107.738 594.021 107.738C593.164 107.738 592.392 108.052 591.706 108.681C591.02 109.291 590.525 110.177 590.22 111.339V119.914C590.486 120.466 590.877 120.914 591.392 121.257C591.906 121.581 592.525 121.743 593.249 121.743ZM614.687 118.57C614.344 119.618 613.696 120.523 612.744 121.285C611.81 122.029 610.676 122.4 609.342 122.4C607.99 122.4 606.818 122.095 605.827 121.486C604.836 120.857 604.074 119.99 603.54 118.885C603.026 117.76 602.769 116.465 602.769 114.997C602.769 113.34 603.035 111.901 603.569 110.682C604.102 109.462 604.855 108.528 605.827 107.881C606.799 107.214 607.932 106.88 609.228 106.88C610.943 106.88 612.258 107.404 613.172 108.452C614.106 109.481 614.573 111.053 614.573 113.168H605.627C605.57 113.702 605.541 114.312 605.541 114.997C605.541 116.255 605.741 117.351 606.141 118.284C606.56 119.218 607.104 119.942 607.77 120.457C608.456 120.952 609.171 121.2 609.914 121.2C610.829 121.2 611.638 120.981 612.343 120.542C613.049 120.104 613.639 119.37 614.116 118.342L614.687 118.57ZM609.114 107.423C608.218 107.423 607.446 107.862 606.799 108.738C606.151 109.615 605.751 110.91 605.598 112.625H611.829C611.867 111.139 611.648 109.9 611.172 108.91C610.714 107.919 610.028 107.423 609.114 107.423ZM625.63 106.88C626.392 106.88 627.011 107.099 627.488 107.538C627.983 107.976 628.231 108.509 628.231 109.138C628.231 109.634 628.078 110.062 627.774 110.424C627.488 110.767 627.097 110.939 626.602 110.939C626.183 110.939 625.821 110.805 625.516 110.539C625.23 110.272 625.087 109.91 625.087 109.453C625.087 108.824 625.411 108.309 626.059 107.909C625.925 107.719 625.725 107.623 625.458 107.623C624.715 107.623 624.039 107.919 623.429 108.509C622.819 109.081 622.343 109.786 622 110.624C621.657 111.463 621.486 112.254 621.486 112.997V119.056C621.486 119.933 621.733 120.542 622.229 120.885C622.743 121.228 623.505 121.4 624.515 121.4V122L623.829 121.971C621.886 121.914 620.647 121.886 620.114 121.886C619.618 121.886 618.494 121.924 616.741 122V121.4C617.541 121.4 618.103 121.257 618.427 120.971C618.751 120.666 618.913 120.123 618.913 119.342V110.396C618.913 109.519 618.751 108.881 618.427 108.481C618.103 108.081 617.541 107.881 616.741 107.881V107.28C617.351 107.338 617.942 107.366 618.513 107.366C619.714 107.366 620.704 107.233 621.486 106.966V110.539C621.829 109.586 622.372 108.738 623.115 107.995C623.877 107.252 624.715 106.88 625.63 106.88Z" fill="white"/>
</svg>
