<svg width="293" height="183" viewBox="0 0 293 183" fill="none" xmlns="http://www.w3.org/2000/svg">
<path d="M136.78 122.4C131.447 122.4 126.68 121.2 122.48 118.8C118.347 116.333 115.08 113.033 112.68 108.9C110.347 104.7 109.18 99.9666 109.18 94.6999C109.18 89.2999 110.347 84.4999 112.68 80.2999C115.014 76.0999 118.214 72.8333 122.28 70.4999C126.347 68.0999 131.014 66.8999 136.28 66.8999C144.147 66.8999 150.68 69.8999 155.88 75.8999C156.814 76.9666 157.147 78.0666 156.88 79.1999C156.614 80.3333 155.88 81.3333 154.68 82.1999C153.747 82.8666 152.714 83.0999 151.58 82.8999C150.447 82.6333 149.414 82.0333 148.48 81.0999C145.214 77.6333 141.147 75.8999 136.28 75.8999C131.147 75.8999 126.98 77.6333 123.78 81.0999C120.58 84.4999 118.98 89.0333 118.98 94.6999C118.98 98.2999 119.714 101.5 121.18 104.3C122.714 107.1 124.814 109.333 127.48 111C130.147 112.6 133.247 113.4 136.78 113.4C141.314 113.4 144.98 112.233 147.78 109.9C148.847 109.033 149.947 108.567 151.08 108.5C152.214 108.367 153.214 108.667 154.08 109.4C155.214 110.333 155.847 111.4 155.98 112.6C156.114 113.733 155.714 114.767 154.78 115.7C149.98 120.167 143.98 122.4 136.78 122.4Z" fill="url(#paint0_linear)"/>
<path d="M185.039 122C182.106 122 179.506 121.2 177.239 119.6C174.972 118 173.206 115.833 171.939 113.1C170.672 110.3 170.039 107.1 170.039 103.5V48.8999C170.039 47.4333 170.506 46.2333 171.439 45.2999C172.372 44.3666 173.572 43.8999 175.039 43.8999C176.506 43.8999 177.706 44.3666 178.639 45.2999C179.572 46.2333 180.039 47.4333 180.039 48.8999V103.5C180.039 105.967 180.506 108 181.439 109.6C182.372 111.2 183.572 112 185.039 112H187.539C188.872 112 189.939 112.467 190.739 113.4C191.606 114.333 192.039 115.533 192.039 117C192.039 118.467 191.406 119.667 190.139 120.6C188.872 121.533 187.239 122 185.239 122H185.039Z" fill="url(#paint1_linear)"/>
<path fill-rule="evenodd" clip-rule="evenodd" d="M1.16892 12.9663C0.378324 11.1853 2.24492 9.43304 3.91331 10.39L13.7069 16.0077L62.408 97.1392L62.0701 120.896C62.0417 122.898 59.4915 123.607 58.4321 121.907L27.4888 72.2585L1.16892 12.9663ZM12.1684 17.43L2.96633 12.1516L23.775 59.0285L12.1684 17.43ZM15.9183 23.5311L57.8465 93.3796L29.2158 71.1896L15.9183 23.5311ZM32.1295 75.9678L60.0939 120.837L60.4202 97.8942L32.1295 75.9678Z" fill="url(#paint2_linear)"/>
<path fill-rule="evenodd" clip-rule="evenodd" d="M3.47164 8.68278C1.59015 8.93107 1.13699 11.4941 2.80538 12.4511L12.599 18.0688L105.014 17.8826L124.357 5.02775C125.988 3.94422 125.222 1.33332 123.265 1.30299L66.1086 0.416992L3.47164 8.68278ZM12.9544 15.9679L3.75236 10.6895L53.2737 4.15448L12.9544 15.9679ZM19.9503 16.0307L99.5131 15.8704L66.1432 2.49632L19.9503 16.0307ZM71.61 2.5253L123.264 3.32599L104.584 15.7405L71.61 2.5253Z" fill="url(#paint3_linear)"/>
<path fill-rule="evenodd" clip-rule="evenodd" d="M291.892 165.833C292.747 167.581 290.947 169.401 289.244 168.509L279.249 163.277L227.609 84.1076L227.076 60.3532C227.031 58.3523 229.555 57.5488 230.677 59.207L263.416 107.609L291.892 165.833ZM280.735 161.798L290.124 166.713L267.611 120.681L280.735 161.798ZM276.764 155.849L232.303 87.685L261.729 108.741L276.764 155.849ZM258.645 104.085L229.054 60.3382L229.569 83.2789L258.645 104.085Z" fill="url(#paint4_linear)"/>
<path fill-rule="evenodd" clip-rule="evenodd" d="M289.751 170.188C291.622 169.866 291.978 167.291 290.274 166.399L280.28 161.167L187.937 164.967L169.077 178.57C167.489 179.716 168.354 182.293 170.312 182.247L227.458 180.898L289.751 170.188ZM280.004 163.279L289.394 168.195L240.144 176.662L280.004 163.279ZM273.011 163.49L193.506 166.762L227.344 178.822L273.011 163.49ZM221.886 179.007L170.235 180.227L188.449 167.09L221.886 179.007Z" fill="url(#paint5_linear)"/>
<defs>
<linearGradient id="paint0_linear" x1="245.032" y1="143.844" x2="212.853" y2="205.317" gradientUnits="userSpaceOnUse">
<stop stop-color="#FDDB92"/>
<stop offset="1" stop-color="#D1FDFF"/>
</linearGradient>
<linearGradient id="paint1_linear" x1="245.032" y1="143.844" x2="212.853" y2="205.317" gradientUnits="userSpaceOnUse">
<stop stop-color="#FDDB92"/>
<stop offset="1" stop-color="#D1FDFF"/>
</linearGradient>
<linearGradient id="paint2_linear" x1="245.032" y1="143.844" x2="212.853" y2="205.317" gradientUnits="userSpaceOnUse">
<stop stop-color="#FDDB92"/>
<stop offset="1" stop-color="#D1FDFF"/>
</linearGradient>
<linearGradient id="paint3_linear" x1="245.032" y1="143.844" x2="212.853" y2="205.317" gradientUnits="userSpaceOnUse">
<stop stop-color="#FDDB92"/>
<stop offset="1" stop-color="#D1FDFF"/>
</linearGradient>
<linearGradient id="paint4_linear" x1="245.032" y1="143.844" x2="212.853" y2="205.317" gradientUnits="userSpaceOnUse">
<stop stop-color="#FDDB92"/>
<stop offset="1" stop-color="#D1FDFF"/>
</linearGradient>
<linearGradient id="paint5_linear" x1="245.032" y1="143.844" x2="212.853" y2="205.317" gradientUnits="userSpaceOnUse">
<stop stop-color="#FDDB92"/>
<stop offset="1" stop-color="#D1FDFF"/>
</linearGradient>
</defs>
</svg>
